#!OML:ASF F:\VICON\USERDATA\INSTALL\Justin_Nancy\Justin_Nancy.ASF
:FULLY-SPECIFIED
:DEGREES
17
root 14.4207 17.9073 -23.8819 5.54179 -11.5496 3.43094
lowerback 3.22135 3.60027 3.75182
upperback -1.39844 5.00779 1.281
thorax -3.03834 2.43021 -1.05563
lowerneck -15.3479 -3.81299 -8.36873
upperneck 15.7469 -4.31187 5.59898
head 7.68772 -2.03573 2.73846
rclavicle -4.87022e-014 -1.27222e-014
rhumerus -49.9096 16.6932 -91.9263
rradius 100.046
rwrist -3.78344
rhand -13.9158 24.6245
rfingers 7.12502
rthumb 12.2103 -4.99913
lclavicle -4.87022e-014 -1.27222e-014
lhumerus -60.5212 -6.88199 96.6411
lradius 99.2547
lwrist 20.266
lhand -18.9485 10.4648
lfingers 7.12502
lthumb 7.35487 40.317
rfemur 13.7732 6.32237 26.0167
rtibia 24.5838
rfoot 18.8489 2.3698
rtoes 7.03152
lfemur -31.4345 -7.70612 -8.96565
ltibia 31.123
lfoot 4.65957 4.49195
ltoes -17.6051
18
root 14.3628 17.8998 -23.5437 5.73732 -11.4225 3.62282
lowerback 3.47272 3.59563 3.43095
upperback -1.53038 5.00292 1.22851
thorax -3.33858 2.42698 -0.956244
lowerneck -15.6831 -4.09612 -8.23855
upperneck 15.7348 -4.66884 5.42251
head 7.76177 -2.20891 2.61181
rclavicle -7.02704e-014 -3.18055e-014
rhumerus -50.1706 16.638 -91.8238
rradius 100.656
rwrist -4.38048
rhand -13.1847 24.7247
rfingers 7.12502
rthumb 12.9152 -4.85561
lclavicle -7.02704e-014 -3.18055e-014
lhumerus -60.9257 -7.08629 96.2556
lradius 99.9747
lwrist 19.8727
lhand -19.0657 10.9245
lfingers 7.12502
lthumb 7.24173 40.7806
rfemur 13.8532 7.24669 26.3443
rtibia 25.5293
rfoot 20.979 1.33302
rtoes 8.05101
lfemur -31.5261 -9.34697 -7.88116
ltibia 27.9549
lfoot 5.52756 3.15355
ltoes -17.3681
19
root 14.3135 17.881 -23.1867 5.77787 -11.5979 3.60052
lowerback 3.72517 3.65538 3.50744
upperback -1.54199 5.09692 1.16922
thorax -3.47734 2.46825 -1.08292
lowerneck -16.059 -4.39807 -7.89985
upperneck 15.4823 -5.06293 5.10051
head 7.7548 -2.39941 2.39571
rclavicle -2.42517e-014 -1.27222e-014
rhumerus -50.2444 16.5166 -91.7431
rradius 101.083
rwrist -4.83795
rhand -12.2822 25.1763
rfingers 7.12502
rthumb 13.785 -4.34697
lclavicle -2.42517e-014 -1.27222e-014
lhumerus -61.2757 -7.36529 95.791
lradius 100.707
lwrist 19.2514
lhand -18.8812 10.7077
lfingers 7.12502
lthumb 7.41978 40.5576
rfemur 13.9585 8.24658 26.8185
rtibia 26.9282
rfoot 21.9124 0.570333
rtoes 8.89011
lfemur -31.4027 -10.8298 -6.67554
ltibia 25.3772
lfoot 5.7102 1.86781
ltoes -18.265
20
root 14.267 17.8529 -22.8109 5.63803 -12.1093 3.60626
lowerback 3.92951 3.8238 3.51768
upperback -1.40222 5.32629 1.15894
thorax -3.43627 2.5838 -1.12156
lowerneck -16.7159 -4.52471 -8.04631
upperneck 15.5654 -5.19027 5.31207
head 7.91547 -2.43806 2.46548
rclavicle -4.7112e-014 1.90833e-014
rhumerus -50.1971 16.6577 -91.7154
rradius 100.989
rwrist -3.72612
rhand -13.4344 24.5937
rfingers 7.12502
rthumb 12.6744 -5.00174
lclavicle -4.7112e-014 1.90833e-014
lhumerus -61.2535 -7.68493 95.4153
lradius 101.222
lwrist 18.7236
lhand -18.6413 10.161
lfingers 7.12502
lthumb 7.65137 40.0026
rfemur 14.1508 9.32717 27.1445
rtibia 28.6887
rfoot 22.5634 -0.0699353
rtoes 9.46012
lfemur -31.0354 -11.9358 -5.70144
ltibia 23.439
lfoot 5.36073 0.707982
ltoes -18.5031
21
root 14.219 17.8062 -22.4441 5.60494 -12.7096 3.50125
lowerback 3.91798 4.00305 3.5648
upperback -1.24175 5.56192 1.18535
thorax -3.25203 2.70542 -1.12569
lowerneck -16.9063 -4.50353 -8.21935
upperneck 15.4979 -5.15573 5.60429
head 7.93653 -2.40019 2.59324
rclavicle -5.96354e-014 -1.27222e-014
rhumerus -50.0217 16.6122 -91.5632
rradius 101.115
rwrist -3.85886
rhand -13.0973 24.4044
rfingers 7.12502
rthumb 12.9994 -5.17057
lclavicle -5.96354e-014 -1.27222e-014
lhumerus -60.9986 -8.00069 94.9575
lradius 101.576
lwrist 18.1323
lhand -18.5617 9.89138
lfingers 7.12502
lthumb 7.7282 39.7302
rfemur 14.0275 10.422 27.5739
rtibia 30.8409
rfoot 22.5977 -1.0796
rtoes 9.202
lfemur -30.874 -12.1769 -4.89538
ltibia 22.1714
lfoot 4.93617 -0.601067
ltoes -18.7778
22
root 14.166 17.7459 -22.088 5.51316 -13.3557 3.52595
lowerback 4.03181 4.10274 3.38065
upperback -1.17441 5.68925 1.21743
thorax -3.26176 2.77322 -1.00549
lowerneck -16.5862 -4.35655 -8.49503
upperneck 14.9963 -4.97375 6.03004
head 7.71976 -2.29288 2.80562
rclavicle -3.12092e-014 -9.54166e-015
rhumerus -49.8902 16.6296 -91.4685
rradius 101.083
rwrist -4.47993
rhand -12.5521 24.6399
rfingers 7.12502
rthumb 13.5249 -4.90089
lclavicle -3.12092e-014 -9.54166e-015
lhumerus -60.9776 -8.1195 94.403
lradius 102.117
lwrist 17.4737
lhand -18.8213 9.97522
lfingers 7.12502
lthumb 7.4776 39.8231
rfemur 13.6936 11.5219 27.9383
rtibia 33.493
rfoot 22.2329 -2.48008
rtoes 8.21496
lfemur -30.6716 -12.0309 -4.44059
ltibia 21.4255
lfoot 4.74026 -1.84893
ltoes -20.2843
23
root 14.1093 17.6728 -21.736 5.34637 -13.807 3.60189
lowerback 4.1711 4.12319 3.18307
upperback -0.976793 5.70539 1.21544
thorax -3.15349 2.7888 -0.902279
lowerneck -17.0513 -4.30361 -8.95659
upperneck 14.945 -4.87607 6.73456
head 7.80628 -2.19743 3.12439
rclavicle -4.86029e-014 1.43125e-014
rhumerus -49.5354 16.538 -91.3172
rradius 100.865
rwrist -4.6448
rhand -12.6819 25.0768
rfingers 7.12502
rthumb 13.3998 -4.47221
lclavicle -4.86029e-014 1.43125e-014
lhumerus -60.616 -8.30942 93.6734
lradius 102.663
lwrist 16.9573
lhand -18.4643 10.1311
lfingers 7.12502
lthumb 7.82222 39.9664
rfemur 13.2348 12.2958 28.2936
rtibia 36.5821
rfoot 21.2283 -4.02688
rtoes 6.84262
lfemur -30.4495 -11.9593 -4.13143
ltibia 21.0909
lfoot 5.37653 -2.64392
ltoes -20.8695
